{"title":"Chrystal 2004 DVDRip BigPerm LKRG[ExtraTorrent]","uid":5588363,"size":1232837143,"categoryP":"video","categoryS":"movies","magnet":"?xt=urn:btih:bcfe0d9f1568a347fe767b4e7d7db9ba50045455&amp;dn=Chrystal+2004+DVDRip+BigPerm+LKRG%5BExtraTorrent%5D&amp;tr=udp%3A%2F%2Ftracker.openbittorrent.com%3A80&amp;tr=udp%3A%2F%2Fopen.demonii.com%3A1337&amp;tr=udp%3A%2F%2Ftracker.coppersurfer.tk%3A6969&amp;tr=udp%3A%2F%2Fexodus.desync.com%3A6969","seeders":0,"leechers":1,"uploader":"raymondhome","files":-1,"time":1274777394,"description":"Love for All and Sharing is the first step to solving all the problems of humanity.\n\nWebsites I want to share.\n\n    &lt;a href=&quot;\nhttp://www.shareintl.org/&quot; rel=&quot;nofollow&quot; target=&quot;_NEW&quot;&gt;\nhttp://www.shareintl.org/&lt;/a&gt;\n\n    &lt;a href=&quot;\nhttp://www.lightmiddleway.com&quot; rel=&quot;nofollow&quot; target=&quot;_NEW&quot;&gt;\nhttp://www.lightmiddleway.com&lt;/a&gt;\n\n\nThank you very much\n\nNo credit for me...credit to EVERYONE for sharing\n &lt;a href=&quot;\nhttp://thepiratebay.se/user/raymondhome/&quot; rel=&quot;nofollow&quot; target=&quot;_NEW&quot;&gt;\nhttp://thepiratebay.se/user/raymondhome/&lt;/a&gt;\n\nPLOT\nSixteen years after the accident that claimed his son's life and permanently injured his wife, a man returns to his home in search of redemption.\n\nFormat : MPEG-4\nDuration : 1h 46mn\nOverall bit rate : 1 539 Kbps\n\nVideo:\nID : 1\nFormat : AVC\nFormat/Info : Advanced Video Codec\nFormat profile : &lt;a class=&quot;__cf_email__&quot; href=&quot;/cdn-cgi/l/email-protection&quot; data-cfemail=&quot;98d5f9f1f6d8d4abb6a8&quot;&gt;[email&amp;#160;protected]&lt;/a&gt;&lt;script cf-hash='f9e31' type=&quot;text/javascript&quot;&gt;\n/* &lt;![CDATA[ */!function(){try{var t=&quot;currentScript&quot;in document?document.currentScript:function(){for(var t=document.getElementsByTagName(&quot;script&quot;),e=t.length;e--;)if(t[e].getAttribute(&quot;cf-hash&quot;))return t[e]}();if(t&amp;&amp;t.previousSibling){var e,r,n,i,c=t.previousSibling,a=c.getAttribute(&quot;data-cfemail&quot;);if(a){for(e=&quot;&quot;,r=parseInt(a.substr(0,2),16),n=2;a.length-n;n+=2)i=parseInt(a.substr(n,2),16)^r,e+=String.fromCharCode(i);e=document.createTextNode(e),c.parentNode.replaceChild(e,c)}}}catch(u){}}();/* ]]&gt; */&lt;/script&gt;\nFormat settings, CABAC : Yes\nFormat settings, ReFrames : 2 frames\nCodec ID : avc1\nCodec ID/Info : Advanced Video Coding\nDuration : 1h 46mn\nBit rate mode : Variable\nBit rate : 1 375 Kbps\nWidth : 720 pixels\nHeight : 464 pixels\nDisplay aspect ratio : 16:9\nFrame rate mode : Variable\nFrame rate : 29.939 fps\nMinimum frame rate : 14.983 fps\nMaximum frame rate : 29.970 fps\nOriginal frame rate : 29.970 fps\nResolution : 8 bits\nColorimetry : 4:2:0\nScan type : Progressive\nBits/(Pixel*Frame) : 0.137\nStream size : 1.03 GiB (89%)\nWriting library : x264 core 79\n\nAudio:\nID : 2\nFormat : AAC\nFormat/Info : Advanced Audio Codec\nFormat version : Version 4\nFormat profile : LC\nFormat settings, SBR : No\nCodec ID : 40\nDuration : 1h 46mn\nBit rate mode : Variable\nBit rate : 160 Kbps\nMaximum bit rate : 235 Kbps\nChannel(s) : 2 channels\nChannel positions : Front: L R\nSampling rate : 48.0 KHz\nStream size : 122 MiB (10%)\nLanguage : English\n\ncredit BigPerm1828 BIG BIG BIG TIME &amp; to all the people who made it possible for us to share this...especially EVERYONE involve in the production of the movie...IF YOU LIKE IT...BUY IT :)\n\n*****help what we can with others in need...the world is ONE big family*****","torrent":{"xt":"urn:btih:bcfe0d9f1568a347fe767b4e7d7db9ba50045455","amp;dn":"Chrystal+2004+DVDRip+BigPerm+LKRG%5BExtraTorrent%5D","amp;tr":["udp%3A%2F%2Ftracker.openbittorrent.com%3A80","udp%3A%2F%2Fopen.demonii.com%3A1337","udp%3A%2F%2Ftracker.coppersurfer.tk%3A6969","udp%3A%2F%2Fexodus.desync.com%3A6969"],"infoHash":"bcfe0d9f1568a347fe767b4e7d7db9ba50045455","infoHashBuffer":{"type":"Buffer","data":[188,254,13,159,21,104,163,71,254,118,123,78,125,125,185,186,80,4,84,85]},"announce":[],"urlList":[]}}